{"title":"Chappie.2015.CAM.XViD-FANTA","uid":11748167,"size":1801632647,"categoryP":"video","categoryS":"movies","magnet":"?xt=urn:btih:95bb76261ed81619c695fdd617e77e13d312a362&amp;dn=Chappie.2015.CAM.XViD-FANTA&amp;tr=udp%3A%2F%2Ftracker.openbittorrent.com%3A80&amp;tr=udp%3A%2F%2Fopen.demonii.com%3A1337&amp;tr=udp%3A%2F%2Ftracker.coppersurfer.tk%3A6969&amp;tr=udp%3A%2F%2Fexodus.desync.com%3A6969","seeders":7,"leechers":1,"uploader":"xxxlavalxxx","files":7,"time":1426102926,"description":" &lt;a href=&quot;http://www.imdb.com/title/tt1823672/&quot; rel=&quot;nofollow&quot; target=&quot;_NEW&quot;&gt;http://www.imdb.com/title/tt1823672/&lt;/a&gt;\n\nIn the near future, crime is patrolled by a mechanized police force. When one police droid, Chappie, is stolen and given new programming, he becomes the first robot with the ability to think and feel for himself.\n\nDirector: Neill Blomkamp\nWriters: Neill Blomkamp, Terri Tatchell\nStars: Sharlto Copley, Dev Patel, Hugh Jackman\nGenres: Action | Sci-Fi | Thriller\nCountry: USA | Mexico\nLanguage: English\n\nFormat                                   : AVI\nFormat/Info                              : Audio Video Interleave\nFormat profile                           : OpenDML\nFormat settings                          : rec\nFile size                                : 1.65 GiB\nDuration                                 : 1h 53mn\nOverall bit rate                         : 2 088 Kbps\nWriting application                      : AVI-Mux GUI 1.17.8.3, Feb 16 201019:42:50\nVideo\nID                                       : 0\nFormat                                   : MPEG-4 Visual\nFormat profile                           : Advanced Simple@L5\nFormat settings, BVOP                    : 2\nFormat settings, QPel                    : No\nFormat settings, GMC                     : No warppoints\nFormat settings, Matrix                  : Default (H.263)\nMuxing mode                              : Packed bitstream\nCodec ID                                 : XVID\nCodec ID/Hint                            : XviD\nDuration                                 : 1h 53mn\nBit rate                                 : 1 891 Kbps\nWidth                                    : 680 pixels\nHeight                                   : 304 pixels\nDisplay aspect ratio                     : 2.25:1\nFrame rate                               : 23.976 fps\nColor space                              : YUV\nChroma subsampling                       : 4:2:0\nBit depth                                : 8 bits\nScan type                                : Progressive\nCompression mode                         : Lossy\nBits/(Pixel*Frame)                       : 0.381\nStream size                              : 1.49 GiB (91%)\nWriting library                          : XviD 64\nAudio\nID                                       : 1\nFormat                                   : AC-3\nFormat/Info                              : Audio Coding 3\nMode extension                           : CM (complete main)\nFormat settings, Endianness              : Big\nCodec ID                                 : 2000\nDuration                                 : 1h 53mn\nBit rate mode                            : Constant\nBit rate                                 : 192 Kbps\nChannel(s)                               : 2 channels\nChannel positions                        : Front: L R\nSampling rate                            : 44.1 KHz\nBit depth                                : 16 bits\nCompression mode                         : Lossy\nStream size                              : 155 MiB (9%)\nAlignment                                : Aligned on interleaves\nInterleave, duration                     : 70 ms (1.67 video frames)\nInterleave, preload duration             : 208 ms\nTitle                                    : Chappie 2015 ENG CAM\n &lt;a href=&quot;\nhttp://i.imgur.com/rpVxgWG.jpg&quot; rel=&quot;nofollow&quot; target=&quot;_NEW&quot;&gt;\nhttp://i.imgur.com/rpVxgWG.jpg&lt;/a&gt; &lt;a href=&quot;\nhttp://i.imgur.com/7tsKqwt.jpg&quot; rel=&quot;nofollow&quot; target=&quot;_NEW&quot;&gt;\nhttp://i.imgur.com/7tsKqwt.jpg&lt;/a&gt; &lt;a href=&quot;\nhttp://i.imgur.com/bs2BKtr.jpg&quot; rel=&quot;nofollow&quot; target=&quot;_NEW&quot;&gt;\nhttp://i.imgur.com/bs2BKtr.jpg&lt;/a&gt; &lt;a href=&quot;\nhttp://i.imgur.com/MLyHE5C.jpg&quot; rel=&quot;nofollow&quot; target=&quot;_NEW&quot;&gt;\nhttp://i.imgur.com/MLyHE5C.jpg&lt;/a&gt; &lt;a href=&quot;\nhttp://i.imgur.com/W0AfLAl.jpg&quot; rel=&quot;nofollow&quot; target=&quot;_NEW&quot;&gt;\nhttp://i.imgur.com/W0AfLAl.jpg&lt;/a&gt; &lt;a href=&quot;\nhttp://i.imgur.com/YwlDPv5.jpg&quot; rel=&quot;nofollow&quot; target=&quot;_NEW&quot;&gt;\nhttp://i.imgur.com/YwlDPv5.jpg&lt;/a&gt; &lt;a href=&quot;\nhttp://i.imgur.com/DGYF79p.jpg&quot; rel=&quot;nofollow&quot; target=&quot;_NEW&quot;&gt;\nhttp://i.imgur.com/DGYF79p.jpg&lt;/a&gt; &lt;a href=&quot;\nhttp://i.imgur.com/mgZ4ABS.jpg&quot; rel=&quot;nofollow&quot; target=&quot;_NEW&quot;&gt;\nhttp://i.imgur.com/mgZ4ABS.jpg&lt;/a&gt; &lt;a href=&quot;\nhttp://i.imgur.com/zHJZ7WQ.jpg&quot; rel=&quot;nofollow&quot; target=&quot;_NEW&quot;&gt;\nhttp://i.imgur.com/zHJZ7WQ.jpg&lt;/a&gt;","torrent":{"xt":"urn:btih:95bb76261ed81619c695fdd617e77e13d312a362","amp;dn":"Chappie.2015.CAM.XViD-FANTA","amp;tr":["udp%3A%2F%2Ftracker.openbittorrent.com%3A80","udp%3A%2F%2Fopen.demonii.com%3A1337","udp%3A%2F%2Ftracker.coppersurfer.tk%3A6969","udp%3A%2F%2Fexodus.desync.com%3A6969"],"infoHash":"95bb76261ed81619c695fdd617e77e13d312a362","infoHashBuffer":{"type":"Buffer","data":[149,187,118,38,30,216,22,25,198,149,253,214,23,231,126,19,211,18,163,98]},"announce":[],"urlList":[]}}